<?xml version="1.0" encoding="UTF-8"?><svg id="Calque_1" xmlns="http://www.w3.org/2000/svg" viewBox="0 0 351.9 140.09"><defs><style>.cls-1{fill:#7dc6b7;}.cls-2{fill:#9095c9;}</style></defs><path class="cls-2" d="m14.24,115.23l-2.6,2.31-1.38-1.94c-.16-.22-.43-.5-.79-.85-.16-.14-.5-.22-1-.24-.58-.04-1.14.1-1.68.42-.62.34-1.31,1.02-2.09,2.04-.71.93-1.14,1.91-1.3,2.94-.14,1.01-.04,1.95.33,2.82.38.93.88,1.66,1.49,2.19.65.55,1.14.87,1.46.97.42.1.85.14,1.3.12.56-.02.99-.05,1.3-.09l2.17-.21.3,3.7-1.65.18-.49.06c-.36.02-.87.05-1.52.09-.74.02-1.46-.06-2.17-.24-.78-.2-1.68-.74-2.71-1.61-1.07-.91-1.91-2.12-2.52-3.61-.63-1.54-.82-3.2-.57-4.98.25-1.74.94-3.33,2.06-4.77,1.05-1.38,2.07-2.36,3.06-2.94,1.08-.61,2.21-.88,3.36-.82,1.27.06,2.27.44,3.01,1.12.54.51.96.97,1.25,1.4l1.38,1.94Z"/><path class="cls-2" d="m19.77,129.22l-3.31.3-.24-3.4c-.07-1.09-.11-2.8-.11-5.13-.02-2.25-.04-4.04-.08-5.37-.05-1.3-.1-2.05-.14-2.28l-.3-2.31,3.31-.55.24,1.85.05.46c.05.36.11,1.26.16,2.67.04,1.38.06,3.22.08,5.53,0,2.25.04,3.86.11,4.83l.22,3.4Z"/><path class="cls-2" d="m24.71,123.64c.02.06.04.12.05.18.23.79.43,1.31.6,1.55.2.18.56.37,1.08.56s.98.26,1.36.2l.92-.12,1.65-.27.46,3.7-1.65.24-.92.15c-.89.14-1.84.02-2.88-.36-.99-.36-1.75-.82-2.28-1.37-.36-.36-.65-.78-.85-1.26-.21-.47-.43-1.09-.66-1.84-.42-1.48-.55-2.79-.41-3.95.18-1.32.87-2.56,2.06-3.73,1.1-1.07,2.08-1.74,2.93-2,.83-.24,1.7-.27,2.6-.09.92.2,1.73.61,2.41,1.21.83.71,1.35,1.62,1.55,2.73.09.3.14.7.14,1.2s-.12.97-.35,1.41c-.34.69-.87,1.13-1.57,1.34-.34.1-.9.2-1.65.3-.74.08-1.65.13-2.74.15l-1.84.06Zm1.03-3.76l.73-.03c1.01-.02,1.83-.07,2.47-.15.14-.02.29-.04.43-.06-.04-.08-.11-.16-.22-.24-.27-.24-.61-.41-1-.49-.4-.08-.78-.07-1.14.03-.29.1-.71.42-1.27.94Z"/><path class="cls-2" d="m37.37,120.3l-3.15-1.24.65-2.06c.09-.28.21-.54.35-.77.14-.23.27-.39.37-.49.1-.09.27-.22.52-.39.24-.17.4-.29.47-.35,1.01-.81,2.25-1.15,3.72-1.03,1.32.12,2.41.48,3.28,1.06.92.63,1.62,1.53,2.09,2.7.42,1.05.65,2.2.71,3.43.04,1.01.05,1.9.05,2.67v5.77h-3.34v-.24c-.51.06-1.08.15-1.74.27-.89.16-1.71.17-2.47.03-1.03-.2-1.81-.71-2.33-1.52-.56-.85-.72-1.82-.49-2.92.18-.87.59-1.67,1.22-2.4.58-.67,1.35-1.21,2.31-1.64.89-.38,1.67-.6,2.36-.64l1-.06c-.05-.45-.16-.86-.33-1.25-.18-.46-.44-.81-.79-1.03-.4-.28-.99-.46-1.79-.52-.67-.06-1.18.05-1.55.33-.25.2-.45.37-.6.52l-.54,1.76Zm5.72,3.92l-.95.06c-.34.02-.8.15-1.36.39-.49.22-.86.48-1.11.76-.16.18-.27.35-.33.52.04,0,.07.01.11.03.38.06.83.05,1.36-.03.72-.14,1.37-.25,1.95-.33l.33-.03v-1.37Z"/><path class="cls-2" d="m48.63,126.04v-.27c-.05-.67-.15-1.74-.27-3.22-.05-.55-.11-1.05-.16-1.52-.07-.81-.13-1.49-.16-2.03l-.11-1.31-.16-1.88,3.31-.33.05.58c.13-.12.24-.23.35-.33,1.1-.99,2.17-1.28,3.2-.85.25.1.49.24.71.43.52.42.92.97,1.19,1.62.27.66.53,1.52.79,2.6.42,1.76.7,3.22.84,4.37.16,1.07.26,1.77.3,2.09l.08.52.3,1.82-3.28.67-.3-1.85-.08-.49c-.05-.36-.15-1.09-.3-2.19-.14-1.03-.41-2.38-.79-4.04-.18-.77-.37-1.38-.57-1.82-.47.43-.83,1.2-1.08,2.31-.07.24-.13.5-.16.76-.22,1.13-.33,2.3-.35,3.49v.73c.04.59.04,1.04.03,1.37l.22.18c.23.36-.14.83-1.11,1.4-.36.22-.69.34-.98.35-.29.01-.52-.05-.69-.18s-.32-.33-.43-.59c-.12-.26-.2-.52-.24-.76-.04-.24-.08-.51-.09-.79-.02-.28-.03-.48-.03-.58v-.24Z"/><path class="cls-2" d="m62.11,124.94l3.34-.36.19,2.4c.04.43.04.87.03,1.34-.02.61-.15,1.26-.41,1.94-.2.59-.48,1.06-.84,1.43-.2.22-.43.41-.68.55l-1.95,1.15-1.57-3.28,1.46-.88.46-.27s.04-.06.05-.12c.09-.26.14-.48.14-.64.02-.3.02-.6,0-.88l-.05-.52-.16-1.85Z"/><path class="cls-2" d="m93.46,115.23l-2.6,2.31-1.38-1.94c-.16-.22-.43-.5-.79-.85-.16-.14-.5-.22-1-.24-.58-.04-1.14.1-1.68.42-.62.34-1.31,1.02-2.09,2.04-.71.93-1.14,1.91-1.3,2.94-.14,1.01-.04,1.95.33,2.82.38.93.88,1.66,1.49,2.19.65.55,1.14.87,1.46.97.42.1.85.14,1.3.12.56-.02.99-.05,1.3-.09l2.17-.21.3,3.7-1.65.18-.49.06c-.36.02-.87.05-1.52.09-.74.02-1.46-.06-2.17-.24-.78-.2-1.68-.74-2.71-1.61-1.07-.91-1.91-2.12-2.52-3.61-.63-1.54-.82-3.2-.57-4.98.25-1.74.94-3.33,2.06-4.77,1.05-1.38,2.07-2.36,3.06-2.94,1.08-.61,2.21-.88,3.36-.82,1.27.06,2.27.44,3.01,1.12.54.51.96.97,1.25,1.4l1.38,1.94Z"/><path class="cls-2" d="m97.86,116.44c.63-.65,1.27-1.05,1.93-1.21.58-.12,1.12-.21,1.63-.27l2.36-.21.24,3.73-1.65.15-.68.06c-.38.04-.79.11-1.22.21-.18.08-.43.33-.76.76-.29.36-.54.79-.76,1.27-.11.28-.21.58-.3.88-.09.3-.16.61-.22.91.04.59.08,1.08.14,1.49.11.89.22,1.73.33,2.52.04.02.07.06.11.12s.08.18.14.36c.05.18.07.37.05.56s-.11.42-.27.68c-.16.26-.4.51-.71.73-.45.34-.85.54-1.19.58-.34.04-.61-.03-.79-.21s-.33-.39-.46-.62-.2-.45-.22-.65l-.05-.27c-.38-.91-.57-2.06-.57-3.46-.02-.67.03-1.35.14-2.03-.04-.53-.06-1.09-.08-1.7l-.08-2.37-.08-1.88,3.04-.12Z"/><path class="cls-2" d="m108.95,123.64c.02.06.04.12.05.18.23.79.43,1.31.6,1.55.2.18.56.37,1.08.56s.98.26,1.36.2l.92-.12,1.65-.27.46,3.7-1.65.24-.92.15c-.89.14-1.84.02-2.88-.36-.99-.36-1.75-.82-2.28-1.37-.36-.36-.65-.78-.85-1.26-.21-.47-.43-1.09-.66-1.84-.42-1.48-.55-2.79-.41-3.95.18-1.32.87-2.56,2.06-3.73,1.1-1.07,2.08-1.74,2.93-2,.83-.24,1.7-.27,2.6-.09.92.2,1.73.61,2.41,1.21.83.71,1.35,1.62,1.55,2.73.09.3.14.7.14,1.2s-.12.97-.35,1.41c-.34.69-.87,1.13-1.57,1.34-.34.1-.9.2-1.65.3-.74.08-1.65.13-2.74.15l-1.84.06Zm1.03-3.76l.73-.03c1.01-.02,1.83-.07,2.47-.15.14-.02.29-.04.43-.06-.04-.08-.11-.16-.22-.24-.27-.24-.61-.41-1-.49-.4-.08-.78-.07-1.14.03-.29.1-.71.42-1.27.94Z"/><path class="cls-2" d="m121.62,120.3l-3.15-1.24.65-2.06c.09-.28.21-.54.35-.77.14-.23.27-.39.37-.49.1-.09.27-.22.52-.39.24-.17.4-.29.47-.35,1.01-.81,2.25-1.15,3.72-1.03,1.32.12,2.41.48,3.28,1.06.92.63,1.62,1.53,2.09,2.7.42,1.05.65,2.2.71,3.43.04,1.01.05,1.9.05,2.67v5.77h-3.34v-.24c-.51.06-1.08.15-1.74.27-.89.16-1.71.17-2.47.03-1.03-.2-1.81-.71-2.33-1.52-.56-.85-.72-1.82-.49-2.92.18-.87.59-1.67,1.22-2.4.58-.67,1.35-1.21,2.31-1.64.89-.38,1.67-.6,2.36-.64l1-.06c-.05-.45-.16-.86-.33-1.25-.18-.46-.44-.81-.79-1.03-.4-.28-.99-.46-1.79-.52-.67-.06-1.18.05-1.55.33-.25.2-.45.37-.6.52l-.54,1.76Zm5.72,3.92l-.95.06c-.34.02-.8.15-1.36.39-.49.22-.86.48-1.11.76-.16.18-.27.35-.33.52.04,0,.07.01.11.03.38.06.83.05,1.36-.03.72-.14,1.37-.25,1.95-.33l.33-.03v-1.37Z"/><path class="cls-2" d="m132.87,121.36l-.87-3.61,1.6-.49.68-.21c.42-.12.98-.23,1.68-.33-.02-.2-.04-.36-.05-.49l-.19-2.4,3.34-.3.19,2.4c0,.08,0,.19.03.33.14-.02.28-.04.41-.06l1.27-.12,1.65-.15.33,3.7-1.68.18-1.25.12c-.13.02-.26.03-.41.03.07.79.13,1.62.19,2.49.09,1.38.17,2.33.24,2.85l.41,2.73-3.28.61-.27-1.82-.14-.91c-.09-.65-.19-1.72-.3-3.22-.04-.79-.09-1.55-.16-2.28-.52.1-.9.18-1.14.24l-.68.21-1.6.49Z"/><path class="cls-2" d="m147.84,123.64c.02.06.04.12.05.18.23.79.43,1.31.6,1.55.2.18.56.37,1.08.56.52.19.98.26,1.36.2l.92-.12,1.65-.27.46,3.7-1.65.24-.92.15c-.89.14-1.84.02-2.88-.36-.99-.36-1.75-.82-2.28-1.37-.36-.36-.65-.78-.85-1.26-.21-.47-.43-1.09-.67-1.84-.42-1.48-.55-2.79-.41-3.95.18-1.32.87-2.56,2.06-3.73,1.1-1.07,2.08-1.74,2.93-2,.83-.24,1.7-.27,2.6-.09.92.2,1.73.61,2.41,1.21.83.71,1.35,1.62,1.55,2.73.09.3.14.7.14,1.2s-.12.97-.35,1.41c-.34.69-.87,1.13-1.57,1.34-.34.1-.9.2-1.65.3-.74.08-1.65.13-2.74.15l-1.84.06Zm1.03-3.76l.73-.03c1.01-.02,1.83-.07,2.47-.15l.43-.06c-.04-.08-.11-.16-.22-.24-.27-.24-.61-.41-1-.49-.4-.08-.78-.07-1.14.03-.29.1-.71.42-1.28.94Z"/><path class="cls-2" d="m159.26,124.94l3.34-.36.19,2.4c.04.43.04.87.03,1.34-.02.61-.15,1.26-.41,1.94-.2.59-.48,1.06-.84,1.43-.2.22-.42.41-.68.55l-1.95,1.15-1.57-3.28,1.46-.88.46-.27s.04-.06.05-.12c.09-.26.14-.48.14-.64.02-.3.02-.6,0-.88l-.05-.52-.16-1.85Z"/><path class="cls-2" d="m179.79,123.12c-.04.61-.05,1.13-.05,1.58-.04,1.13-.04,2.03,0,2.7l.19,2.97-3.34.24-.16-2.95c-.05-.81-.06-1.84-.03-3.1.02-.87.07-2.05.16-3.55.04-.59.07-1.2.11-1.85.16-2.31.23-3.83.22-4.58l-.08-1.24c-.14-.85-.03-1.57.35-2.16.18-.26.38-.47.58-.62.21-.15.38-.25.5-.29.13-.04.31-.08.56-.12.24-.04.39-.06.45-.06.87-.2,1.88-.15,3.04.15,1.16.3,2.16.81,3.01,1.52,1.07.93,1.61,2.04,1.63,3.34.04,1.17-.39,2.36-1.27,3.55-.2.26-.41.53-.62.79,1.28.75,2.03,1.79,2.25,3.13.16.91.22,1.86.16,2.85-.04.79-.06,1.25-.08,1.4v2.06h-3.34v-2.06c0-.18.03-.72.08-1.61.04-.69,0-1.35-.11-1.97-.02-.14-.21-.31-.57-.52-.51-.3-.97-.42-1.38-.33-.38.06-.69.13-.92.21-.04.02-.06.04-.08.06-.07.04-.13.09-.16.14-.04.05-.07.09-.09.11-.03.02-.12.05-.28.09-.16.04-.4.08-.71.12Zm.24-4.13c.34-.22.74-.52,1.19-.88.71-.51,1.32-1.11,1.84-1.82.36-.49.54-.85.54-1.09.02-.08-.1-.23-.35-.46-.47-.38-1.05-.67-1.74-.85-.52-.14-.98-.2-1.36-.18.02.22.04.48.05.76.02.83-.05,2.34-.19,4.52Z"/><path class="cls-2" d="m192.38,123.64c.02.06.04.12.05.18.23.79.43,1.31.6,1.55.2.18.56.37,1.08.56.52.19.98.26,1.36.2l.92-.12,1.65-.27.46,3.7-1.65.24-.92.15c-.89.14-1.84.02-2.88-.36-.99-.36-1.75-.82-2.28-1.37-.36-.36-.65-.78-.85-1.26-.21-.47-.43-1.09-.67-1.84-.42-1.48-.55-2.79-.41-3.95.18-1.32.87-2.56,2.06-3.73,1.1-1.07,2.08-1.74,2.93-2,.83-.24,1.7-.27,2.6-.09.92.2,1.73.61,2.41,1.21.83.71,1.35,1.62,1.55,2.73.09.3.14.7.14,1.2s-.12.97-.35,1.41c-.34.69-.87,1.13-1.57,1.34-.34.1-.9.2-1.65.3-.74.08-1.65.13-2.74.15l-1.84.06Zm1.03-3.76l.73-.03c1.01-.02,1.83-.07,2.47-.15l.43-.06c-.04-.08-.11-.16-.22-.24-.27-.24-.61-.41-1-.49-.4-.08-.78-.07-1.14.03-.29.1-.71.42-1.28.94Z"/><path class="cls-2" d="m213.07,120.87l-2.96,1.73-.79-1.67-.27-.58c-.14-.3-.35-.65-.62-1.03-.11-.14-.2-.23-.27-.27-.22.02-.52.12-.9.3-.6.28-1.11.75-1.55,1.4-.36.55-.52,1.14-.49,1.79.05.79.25,1.45.6,1.97.27.42.67.71,1.19.85.71.2,1.3.26,1.79.18.54-.08.89-.14,1.03-.18l1.9-.76,1.11,3.52-1.9.76c-.33.12-.89.24-1.68.36-.9.14-1.92.06-3.04-.24-1.34-.36-2.39-1.14-3.15-2.34-.69-1.09-1.08-2.38-1.17-3.86-.11-1.6.27-3.04,1.14-4.31.8-1.17,1.75-2.03,2.85-2.58,1.21-.59,2.22-.76,3.04-.52s1.51.77,2.09,1.58c.42.57.74,1.1.98,1.61l1.06,2.28Z"/><path class="cls-2" d="m214.4,117.93l3.23-.94.41,1.82.24,1c.14.61.4,1.46.76,2.55.13.34.25.62.38.82.13-.1.25-.23.38-.39.67-.79,1.11-1.47,1.33-2.03.18-.55.3-.92.35-1.12l-.22-.18c-.18-.32.16-.77,1.03-1.34.34-.22.65-.35.92-.39.27-.04.49,0,.67.11s.32.27.45.49c.13.21.22.42.27.64.05.21.1.44.14.67.04.23.06.4.07.5s.01.17.01.21c-.02.61-.14,2.24-.35,4.89-.24,2.69-.54,5-.92,6.92-.42,2.08-.94,3.61-1.57,4.58-.58.93-1.09,1.57-1.55,1.91l-1.79,1.46-1.93-3.04,1.33-1.09.43-.36c.18-.14.44-.5.79-1.06.36-.55.71-1.62,1.03-3.22.27-1.38.51-2.98.71-4.8-.9.61-1.78.73-2.63.36-1.03-.45-1.84-1.5-2.41-3.16-.43-1.23-.73-2.23-.89-2.98l-.65-2.82Z"/><path class="cls-2" d="m237.32,120.87l-2.96,1.73-.79-1.67-.27-.58c-.14-.3-.35-.65-.62-1.03-.11-.14-.2-.23-.27-.27-.22.02-.52.12-.9.3-.6.28-1.11.75-1.55,1.4-.36.55-.52,1.14-.49,1.79.05.79.25,1.45.6,1.97.27.42.67.71,1.19.85.71.2,1.3.26,1.79.18.54-.08.89-.14,1.03-.18l1.9-.76,1.11,3.52-1.9.76c-.33.12-.89.24-1.68.36-.9.14-1.92.06-3.04-.24-1.34-.36-2.39-1.14-3.15-2.34-.69-1.09-1.08-2.38-1.17-3.86-.11-1.6.27-3.04,1.14-4.31.8-1.17,1.75-2.03,2.85-2.58,1.21-.59,2.22-.76,3.04-.52s1.51.77,2.09,1.58c.42.57.74,1.1.98,1.61l1.06,2.28Z"/><path class="cls-2" d="m242.82,129.22l-3.31.3-.24-3.4c-.07-1.09-.11-2.8-.11-5.13-.02-2.25-.05-4.04-.08-5.37-.05-1.3-.1-2.05-.13-2.28l-.3-2.31,3.31-.55.24,1.85.05.46c.05.36.11,1.26.16,2.67.04,1.38.06,3.22.08,5.53,0,2.25.04,3.86.11,4.83l.22,3.4Z"/><path class="cls-2" d="m247.76,123.64c.02.06.04.12.05.18.23.79.43,1.31.6,1.55.2.18.56.37,1.08.56.52.19.98.26,1.36.2l.92-.12,1.65-.27.46,3.7-1.65.24-.92.15c-.89.14-1.84.02-2.88-.36-.99-.36-1.75-.82-2.28-1.37-.36-.36-.65-.78-.85-1.26-.21-.47-.43-1.09-.67-1.84-.42-1.48-.55-2.79-.41-3.95.18-1.32.87-2.56,2.06-3.73,1.1-1.07,2.08-1.74,2.93-2,.83-.24,1.7-.27,2.6-.09.92.2,1.73.61,2.41,1.21.83.71,1.35,1.62,1.55,2.73.09.3.14.7.14,1.2s-.12.97-.35,1.41c-.34.69-.87,1.13-1.57,1.34-.34.1-.9.2-1.65.3-.74.08-1.65.13-2.74.15l-1.84.06Zm1.03-3.76l.73-.03c1.01-.02,1.83-.07,2.47-.15l.43-.06c-.04-.08-.11-.16-.22-.24-.27-.24-.61-.41-1-.49-.4-.08-.78-.07-1.14.03-.29.1-.71.42-1.28.94Z"/><path class="cls-2" d="m259.18,124.94l3.34-.36.19,2.4c.04.43.04.87.03,1.34-.02.61-.15,1.26-.41,1.94-.2.59-.48,1.06-.84,1.43-.2.22-.42.41-.68.55l-1.95,1.15-1.57-3.28,1.46-.88.46-.27s.04-.06.05-.12c.09-.26.14-.48.14-.64.02-.3.02-.6,0-.88l-.05-.52-.16-1.85Z"/><path class="cls-2" d="m279.71,123.12c-.04.61-.05,1.13-.05,1.58-.04,1.13-.04,2.03,0,2.7l.19,2.97-3.34.24-.16-2.95c-.05-.81-.06-1.84-.03-3.1.02-.87.07-2.05.16-3.55.04-.59.07-1.2.11-1.85.16-2.31.23-3.83.22-4.58l-.08-1.24c-.14-.85-.03-1.57.35-2.16.18-.26.38-.47.58-.62.21-.15.38-.25.5-.29.13-.04.31-.08.56-.12.24-.04.39-.06.45-.06.87-.2,1.88-.15,3.04.15,1.16.3,2.16.81,3.01,1.52,1.07.93,1.61,2.04,1.63,3.34.04,1.17-.39,2.36-1.27,3.55-.2.26-.41.53-.62.79,1.28.75,2.03,1.79,2.25,3.13.16.91.22,1.86.16,2.85-.04.79-.06,1.25-.08,1.4v2.06h-3.34v-2.06c0-.18.03-.72.08-1.61.04-.69,0-1.35-.11-1.97-.02-.14-.21-.31-.57-.52-.51-.3-.97-.42-1.38-.33-.38.06-.69.13-.92.21-.04.02-.06.04-.08.06-.07.04-.13.09-.16.14-.04.05-.07.09-.09.11-.03.02-.12.05-.28.09-.16.04-.4.08-.71.12Zm.24-4.13c.34-.22.74-.52,1.19-.88.71-.51,1.32-1.11,1.84-1.82.36-.49.54-.85.54-1.09.02-.08-.1-.23-.35-.46-.47-.38-1.05-.67-1.74-.85-.52-.14-.98-.2-1.36-.18.02.22.04.48.05.76.02.83-.05,2.34-.19,4.52Z"/><path class="cls-2" d="m292.29,123.64c.02.06.04.12.05.18.23.79.43,1.31.6,1.55.2.18.56.37,1.08.56.52.19.98.26,1.36.2l.92-.12,1.65-.27.46,3.7-1.65.24-.92.15c-.89.14-1.84.02-2.88-.36-.99-.36-1.75-.82-2.28-1.37-.36-.36-.65-.78-.85-1.26-.21-.47-.43-1.09-.67-1.84-.42-1.48-.55-2.79-.41-3.95.18-1.32.87-2.56,2.06-3.73,1.1-1.07,2.08-1.74,2.93-2,.83-.24,1.7-.27,2.6-.09.92.2,1.73.61,2.41,1.21.83.71,1.35,1.62,1.55,2.73.09.3.14.7.14,1.2s-.12.97-.35,1.41c-.34.69-.87,1.13-1.57,1.34-.34.1-.9.2-1.65.3-.74.08-1.65.13-2.74.15l-1.84.06Zm1.03-3.76l.73-.03c1.01-.02,1.83-.07,2.47-.15l.43-.06c-.04-.08-.11-.16-.22-.24-.27-.24-.61-.41-1-.49-.4-.08-.78-.07-1.14.03-.29.1-.71.42-1.28.94Z"/><path class="cls-2" d="m305.61,128.83c.02.85.04,1.79.05,2.82.02,1.36-.02,2.39-.11,3.1l-.11.94-.19,1.85-3.31-.46.19-1.85.11-.94c.07-.55.1-1.42.08-2.61-.02-1.27-.05-2.42-.08-3.43,0-.32,0-.69-.03-1.09-.05-.83-.12-1.82-.19-2.98-.11-1.78-.18-3.02-.22-3.7-.04-1.15.22-2.1.76-2.85.54-.75,1.38-1.2,2.52-1.37.85-.14,1.67-.14,2.47,0,.8.14,1.58.45,2.36.91.81.47,1.37,1.11,1.68,1.94.13.38.2.78.22,1.18.04,1.09-.36,2.34-1.19,3.74-.74,1.21-1.56,2.21-2.47,2.97-.83.73-1.52,1.25-2.06,1.55l-.49.27Zm-.19-4.16c.22-.18.46-.38.73-.61.6-.53,1.16-1.23,1.68-2.13.38-.61.59-1.08.62-1.43-.02,0-.04,0-.05-.03-.47-.26-.93-.43-1.38-.52-.47-.08-.97-.08-1.49,0-.14.02-.27.04-.38.06v.27c.04.67.11,1.87.22,3.61.02.24.04.5.05.76Z"/><path class="cls-2" d="m316.73,123.64c.02.06.04.12.05.18.23.79.43,1.31.6,1.55.2.18.56.37,1.08.56.52.19.98.26,1.36.2l.92-.12,1.65-.27.46,3.7-1.65.24-.92.15c-.89.14-1.84.02-2.88-.36-.99-.36-1.75-.82-2.28-1.37-.36-.36-.65-.78-.85-1.26-.21-.47-.43-1.09-.67-1.84-.42-1.48-.55-2.79-.41-3.95.18-1.32.87-2.56,2.06-3.73,1.1-1.07,2.08-1.74,2.93-2,.83-.24,1.7-.27,2.6-.09.92.2,1.73.61,2.41,1.21.83.71,1.35,1.62,1.55,2.73.09.3.14.7.14,1.2s-.12.97-.35,1.41c-.34.69-.87,1.13-1.57,1.34-.34.1-.9.2-1.65.3-.74.08-1.65.13-2.74.15l-1.84.06Zm1.03-3.76l.73-.03c1.01-.02,1.83-.07,2.47-.15l.43-.06c-.04-.08-.11-.16-.22-.24-.27-.24-.61-.41-1-.49-.4-.08-.78-.07-1.14.03-.29.1-.71.42-1.28.94Z"/><path class="cls-2" d="m329.4,120.3l-3.15-1.24.65-2.06c.09-.28.21-.54.35-.77.14-.23.27-.39.37-.49.1-.09.27-.22.51-.39.24-.17.4-.29.47-.35,1.01-.81,2.25-1.15,3.72-1.03,1.32.12,2.41.48,3.28,1.06.92.63,1.62,1.53,2.09,2.7.42,1.05.65,2.2.71,3.43.04,1.01.05,1.9.05,2.67v5.77h-3.34v-.24c-.51.06-1.08.15-1.74.27-.89.16-1.71.17-2.47.03-1.03-.2-1.81-.71-2.33-1.52-.56-.85-.72-1.82-.49-2.92.18-.87.59-1.67,1.22-2.4.58-.67,1.35-1.21,2.31-1.64.89-.38,1.67-.6,2.36-.64l1-.06c-.05-.45-.16-.86-.33-1.25-.18-.46-.44-.81-.79-1.03-.4-.28-.99-.46-1.79-.52-.67-.06-1.18.05-1.55.33-.25.2-.45.37-.6.52l-.54,1.76Zm5.72,3.92l-.95.06c-.34.02-.8.15-1.36.39-.49.22-.86.48-1.11.76-.16.18-.27.35-.33.52.04,0,.07.01.11.03.38.06.83.05,1.36-.03.72-.14,1.37-.25,1.95-.33l.33-.03v-1.37Z"/><path class="cls-2" d="m340.65,121.36l-.87-3.61,1.6-.49.68-.21c.42-.12.98-.23,1.68-.33-.02-.2-.04-.36-.05-.49l-.19-2.4,3.34-.3.19,2.4c0,.08,0,.19.03.33.14-.02.28-.04.41-.06l1.27-.12,1.65-.15.33,3.7-1.68.18-1.25.12c-.13.02-.26.03-.41.03.07.79.13,1.62.19,2.49.09,1.38.17,2.33.24,2.85l.41,2.73-3.28.61-.27-1.82-.14-.91c-.09-.65-.19-1.72-.3-3.22-.04-.79-.09-1.55-.16-2.28-.52.1-.9.18-1.14.24l-.68.21-1.6.49Z"/><path class="cls-2" d="m39.87,100.28l-29.9-28.96v28.96H1.34v-55.8h8.63v23.28l25.27-23.28h12.12l-27.91,25.08,32.4,30.72h-11.98Z"/><path class="cls-2" d="m96.11,100.28l-26.68-24.63v24.63h-8.63v-55.8h26.18c12.18,0,20.34,5.96,20.34,16.81s-7.46,16.53-19.69,16.53h-4.66l25.49,22.47h-12.35Zm-26.68-29.95h18.21c6.43,0,10.86-2.86,10.86-9.05s-4.42-9.04-10.86-9.04h-18.21v18.09Z"/><path class="cls-2" d="m139.11,76.25l-24.35-31.77h10.31l18.36,23.73,18.33-23.73h10.31l-24.35,31.77v23.99h-8.62v-23.99Z"/><path class="cls-2" d="m202.68,100.95c-9.07.03-18.47-2.52-24.97-6.63l4.65-6.71c5.96,3.57,13.58,5.59,20.69,5.54,7.79-.07,13.07-3.03,13.18-8.12.11-4.68-3.03-6.42-11.22-8.3l-7.37-1.68c-11.94-2.71-17.47-7.69-17.51-15.9-.05-9.06,9.07-15.24,21.38-15.31,8.12-.05,15.99,2.41,21.77,5.97l-4.38,6.7c-4.92-3.01-10.57-4.92-16.6-4.87-7.68.07-13.02,2.8-12.97,7.76.04,4.31,3.49,6.45,10.82,8.12l7.87,1.77c11.87,2.67,17.07,7.21,17.11,15.72.05,9.47-9.12,15.91-22.46,15.95h0Z"/><path class="cls-2" d="m253.03,52.35h-19.5l-.05-7.87h47.54v7.87h-19.46v47.93h-8.53v-47.93Z"/><path class="cls-1" d="m132.42,23.08h0c-.52-.06-3.18-.47-6.67-3.57-6.23-5.54-17.13-7.34-25.92-.06-3.24,2.68-6.68,4.06-9.85,4.13-3.2-.07-6.47-1.45-9.72-4.13-3.99-3.3-8.4-4.73-12.61-4.79-4.21.06-8.62,1.49-12.61,4.79-3.25,2.68-6.52,4.06-9.72,4.13-3.17-.07-6.6-1.45-9.85-4.13-8.79-7.28-19.7-5.47-25.92.06-3.48,3.1-6.15,3.51-6.67,3.57h0C1.3,23.08,0,24.36,0,25.96s1.29,2.89,2.88,2.89c.02,0,.04,0,.04,0,.64,0,5.1-.25,10.45-5.02,3.05-2.72,10.84-6.2,18.42.07,4.32,3.57,9.06,5.39,13.52,5.47,4.49-.08,9.07-1.9,13.4-5.47,3.07-2.54,6.15-3.48,8.94-3.52,2.78.04,5.86.98,8.94,3.52,4.32,3.57,8.91,5.39,13.4,5.47,4.47-.08,9.21-1.9,13.52-5.47,7.58-6.27,15.36-2.79,18.42-.07,5.35,4.77,9.82,5.02,10.45,5.02.02,0,.03,0,.05,0,1.59,0,2.88-1.29,2.88-2.89s-1.3-2.88-2.88-2.88Z"/><path class="cls-1" d="m132.42,8.43h0c-.52-.06-3.18-.47-6.67-3.57-6.23-5.54-17.13-7.34-25.92-.06-3.24,2.68-6.68,4.06-9.85,4.13-3.2-.07-6.47-1.45-9.72-4.13C76.28,1.5,71.87.07,67.65.01c-4.21.06-8.62,1.49-12.61,4.79-3.25,2.68-6.52,4.06-9.72,4.13-3.17-.07-6.6-1.45-9.85-4.13-8.79-7.28-19.7-5.47-25.92.06-3.48,3.1-6.15,3.51-6.67,3.57h0C1.3,8.43,0,9.71,0,11.31s1.29,2.89,2.88,2.89c.02,0,.04,0,.04,0,.64,0,5.1-.25,10.45-5.02,3.05-2.72,10.84-6.2,18.42.07,4.32,3.57,9.06,5.39,13.52,5.47,4.49-.08,9.07-1.9,13.4-5.47,3.07-2.54,6.15-3.48,8.94-3.52,2.78.04,5.86.98,8.94,3.52,4.32,3.57,8.91,5.39,13.4,5.47,4.47-.08,9.21-1.9,13.52-5.47,7.58-6.27,15.36-2.79,18.42-.07,5.35,4.77,9.82,5.02,10.45,5.02.02,0,.03,0,.05,0,1.59,0,2.88-1.29,2.88-2.89s-1.3-2.88-2.88-2.88Z"/><path class="cls-1" d="m316.3,95.17c-13.32-1.67-22.88-12.43-22.88-25.59s9.57-24.04,22.88-25.71v-5.1c-16.48,1.69-28.22,16.27-28.22,32.26s11.74,27.54,28.22,29.24v-5.11Z"/><path class="cls-1" d="m322.57,38.7v5.07c13.93,1.24,23.97,12.22,23.97,25.82s-10.04,24.45-23.97,25.7v5.09c17.11-1.25,29.33-14.59,29.33-30.79s-12.22-29.63-29.33-30.88Z"/></svg>